<?xml version="1.0" encoding="UTF-8" standalone="no"?>
<svg
   xmlns:dc="http://purl.org/dc/elements/1.1/"
   xmlns:cc="http://creativecommons.org/ns#"
   xmlns:rdf="http://www.w3.org/1999/02/22-rdf-syntax-ns#"
   xmlns:svg="http://www.w3.org/2000/svg"
   xmlns="http://www.w3.org/2000/svg"
   xmlns:sodipodi="http://sodipodi.sourceforge.net/DTD/sodipodi-0.dtd"
   xmlns:inkscape="http://www.inkscape.org/namespaces/inkscape"
   viewBox="0 0 337.84044 83.017075"
   width="253.29359"
   height="62.519032"
   version="1.1"
   id="svg4378"
   sodipodi:docname="ff.svg"
   inkscape:version="0.92.5 (2060ec1f9f, 2020-04-08)">
  <metadata
     id="metadata4384">
    <rdf:RDF>
      <cc:Work
         rdf:about="">
        <dc:format>image/svg+xml</dc:format>
        <dc:type
           rdf:resource="http://purl.org/dc/dcmitype/StillImage" />
        <dc:title></dc:title>
      </cc:Work>
    </rdf:RDF>
  </metadata>
  <defs
     id="defs4382" />
  <sodipodi:namedview
     pagecolor="#ffffff"
     bordercolor="#666666"
     borderopacity="1"
     objecttolerance="10"
     gridtolerance="10"
     guidetolerance="10"
     inkscape:pageopacity="0"
     inkscape:pageshadow="2"
     inkscape:window-width="3440"
     inkscape:window-height="1379"
     id="namedview4380"
     showgrid="false"
     inkscape:zoom="2.8907563"
     inkscape:cx="97.575548"
     inkscape:cy="-77.505456"
     inkscape:window-x="0"
     inkscape:window-y="1104"
     inkscape:window-maximized="1"
     inkscape:current-layer="svg4378"
     inkscape:snap-to-guides="true" />
  <path
     d="m 195.3521,33.619408 -2.36,-7.32 h -9.76 l -2.32,7.32 h -2.32 l 7.92,-24.5200004 h 4.88 l 7.92,24.5200004 z m -11.48,-9.28 h 8.48 l -4.24,-13.32 z m 26.12,-15.7200004 q 3.76,0 5.8,1.7800004 2.04,1.78 2.52,5.46 v 0 l -3.32,0.44 q -0.2,-2.88 -1.5,-4.44 -1.3,-1.56 -3.5,-1.56 v 0 q -2.36,0 -3.62,1.14 -1.26,1.14 -1.26,3.22 v 0 q 0,1.92 1.02,2.9 1.02,0.98 3.66,1.66 v 0 l 2.2,0.56 q 3.56,1 5.04,2.64 1.48,1.64 1.48,4.56 v 0 q 0,3.44 -2.24,5.28 -2.24,1.84 -6.4,1.84 v 0 q -3.96,0 -6.06,-1.78 -2.1,-1.78 -2.54,-5.46 v 0 l 3.24,-0.48 q 0.32,2.88 1.68,4.44 1.36,1.56 3.68,1.56 v 0 q 5.2,0 5.2,-4.4 v 0 q 0,-1.32 -0.44,-2.12 -0.44,-0.8 -1.46,-1.34 -1.02,-0.54 -2.98,-1.02 v 0 l -2.04,-0.52 q -3.56,-0.92 -4.98,-2.58 -1.42,-1.66 -1.42,-4.7 v 0 q 0,-3.48 2.1,-5.28 2.1,-1.8000004 6.14,-1.8000004 z m 17.52,22.9600004 h 10.2 v 2.04 h -14.28 V 9.0994076 h 13.56 v 2.0400004 h -9.48 v 8.92 h 8.64 v 2.12 h -8.64 z m 21.76,-22.9600004 q 3.76,0 5.8,1.7800004 2.03999,1.78 2.51999,5.46 v 0 l -3.31999,0.44 q -0.2,-2.88 -1.5,-4.44 -1.3,-1.56 -3.5,-1.56 v 0 q -2.36,0 -3.62,1.14 -1.26,1.14 -1.26,3.22 v 0 q 0,1.92 1.02,2.9 1.02,0.98 3.66,1.66 v 0 l 2.2,0.56 q 3.56,1 5.03999,2.64 1.48,1.64 1.48,4.56 v 0 q 0,3.44 -2.23999,5.28 -2.24,1.84 -6.4,1.84 v 0 q -3.96,0 -6.06,-1.78 -2.1,-1.78 -2.54,-5.46 v 0 l 3.24,-0.48 q 0.32,2.88 1.68,4.44 1.36,1.56 3.68,1.56 v 0 q 5.2,0 5.2,-4.4 v 0 q 0,-1.32 -0.44,-2.12 -0.44,-0.8 -1.46,-1.34 -1.02,-0.54 -2.98,-1.02 v 0 l -2.04,-0.52 q -3.56,-0.92 -4.98,-2.58 -1.42,-1.66 -1.42,-4.7 v 0 q 0,-3.48 2.1,-5.28 2.1,-1.8000004 6.14,-1.8000004 z m 22.07999,25.4800004 q -5.04,0 -7.46,-3.1 -2.42,-3.1 -2.42,-9.62 v 0 q 0,-6.6 2.4,-9.68 2.4,-3.0800004 7.48,-3.0800004 v 0 q 5.12,0 7.52,3.1000004 2.4,3.1 2.4,9.66 v 0 q 0,6.52 -2.42,9.62 -2.42,3.1 -7.5,3.1 z m 0,-1.72 q 2.96,0 4.4,-2.7 1.44,-2.7 1.44,-8.3 v 0 q 0,-5.68 -1.44,-8.38 -1.44,-2.7 -4.4,-2.7 v 0 q -2.96,0 -4.38,2.68 -1.42,2.68 -1.42,8.4 v 0 q 0,5.68 1.42,8.34 1.42,2.66 4.38,2.66 z m 28.76,-7.64 3.68,8.88 h -4.4 l -3.44,-8.52 q -0.48,-1.16 -1.18,-1.54 -0.7,-0.38 -2.14,-0.38 v 0 h -1.88 v 10.44 h -4.08 V 9.0994076 h 8.2 q 4.36,0 6.12,2.1400004 1.76,2.14 1.76,5.18 v 0 q 0,2.24 -1.06,3.98 -1.06,1.74 -3.66,2.42 v 0 q 1.44,0.52 2.08,1.92 z m -9.36,-3.04 h 3.68 q 2.16,0 3.2,-1.54 1.04,-1.54 1.04,-3.74 v 0 q 0,-2.44 -1.04,-4.12 -1.04,-1.68 -3.2,-1.68 v 0 h -3.68 z m 22.04,-12.6000004 V 33.619408 h -4.08 V 9.0994076 Z m -4.52,-2.96 4.92,-6.32000004 2.48,2.88000004 -6.56,4.36 z m 25.08,27.4800004 -2.36,-7.32 h -9.76 l -2.32,7.32 h -2.32 l 7.92,-24.5200004 h 4.88 l 7.92,24.5200004 z m -11.48,-9.28 h 8.48 l -4.24,-13.32 z"
     id="path4374"
     inkscape:connector-curvature="0"
     style="fill:#054405;fill-rule:nonzero" />
  <path
     d="m 191.08461,41.891338 q 6.31336,0 8.934,3.24602 2.62064,3.246016 2.62064,8.427736 v 0 q 0,5.18172 -2.62064,8.39796 -2.62064,3.216241 -8.934,3.216241 v 0 h -5.956 v 13.22232 h -6.07512 V 41.891338 Z m -0.83384,21.143796 q 3.2758,0 4.79458,-2.50152 1.51878,-2.50152 1.51878,-6.96852 v 0 q 0,-4.40744 -1.51878,-6.90896 -1.51878,-2.501516 -4.79458,-2.501516 v 0 h -5.12216 v 18.880516 z m 24.65784,12.328921 h 15.1878 v 3.03756 H 208.83349 V 41.891338 h 20.19084 v 3.03756 h -14.11572 v 13.281876 h 12.86496 v 3.15668 h -12.86496 z m 45.50384,-33.472717 -11.25684,23.883557 -0.0596,0.05956 v 12.56716 h -6.07512 V 65.774895 L 231.76405,41.891338 h 6.13468 l 9.35092,20.548196 9.58916,-20.548196 z m 34.66392,36.510277 -0.77428,-32.877117 -9.94652,32.757997 v 0.11912 h -5.41996 l -9.94652,-33.174917 -0.83384,33.174917 h -3.5736 l 1.01252,-36.510277 h 7.92148 l 9.05312,30.494717 9.2318,-30.494717 h 8.21928 l 1.07208,36.510277 z m 27.9932,0.71472 q -7.50456,0 -11.10794,-4.6159 -3.60338,-4.6159 -3.60338,-14.324181 v 0 q 0,-9.8274 3.5736,-14.413516 3.5736,-4.58612 11.13772,-4.58612 v 0 q 7.62368,0 11.19728,4.6159 3.5736,4.615896 3.5736,14.383736 v 0 q 0,9.708281 -3.60338,14.324181 -3.60338,4.6159 -11.1675,4.6159 z m 0,-2.56108 q 4.40744,0 6.5516,-4.0203 2.14416,-4.0203 2.14416,-12.358701 v 0 q 0,-8.45752 -2.14416,-12.47782 -2.14416,-4.020296 -6.5516,-4.020296 v 0 q -4.40744,0 -6.52182,3.990516 -2.11438,3.99052 -2.11438,12.5076 v 0 q 0,8.457521 2.11438,12.418261 2.11438,3.96074 6.52182,3.96074 z"
     id="path4376"
     inkscape:connector-curvature="0"
     style="fill:#054405;fill-rule:nonzero;stroke-width:1.48899996" />
  <g
     transform="matrix(0.10003424,0,0,-0.10003424,-20.006848,102.21317)"
     id="g4416"
     style="fill:#054405;stroke:none">
    <path
       d="m 1165,1010 c -62,-13 -153,-49 -158,-64 -4,-9 10,-25 35,-42 52,-36 143,-44 236,-19 39,10 82,14 110,10 36,-4 42,-3 25,5 -13,5 -23,15 -23,21 0,9 22,10 80,6 44,-3 80,-3 80,-1 0,11 -96,56 -160,73 -76,21 -154,25 -225,11 z"
       id="path4388"
       inkscape:connector-curvature="0" />
    <path
       d="m 951,860 c -12,-33 -19,-65 -16,-70 3,-6 21,-10 39,-10 30,0 35,4 50,43 9,23 16,48 16,54 0,11 -43,43 -58,43 -5,0 -19,-27 -31,-60 z"
       id="path4390"
       inkscape:connector-curvature="0" />
    <path
       d="m 1638,867 c 23,-24 29,-57 12,-57 -6,0 -24,7 -40,15 -41,21 -38,2 5,-32 23,-19 35,-36 35,-53 0,-37 27,-69 74,-91 l 41,-19 h -35 c -19,-1 -62,-11 -95,-23 -49,-18 -59,-26 -57,-42 2,-11 9,-25 15,-32 30,-29 228,42 269,97 10,14 21,46 24,72 6,46 5,49 -32,86 -40,39 -172,102 -215,102 h -22 z"
       id="path4392"
       inkscape:connector-curvature="0" />
    <path
       d="m 801,820 c -1,-48 30,-113 66,-138 16,-11 49,-28 74,-38 73,-28 70,-36 -13,-33 -90,4 -108,-5 -46,-21 88,-25 88,-27 -1,-32 -32,-2 -56,-8 -59,-15 -3,-10 19,-13 85,-14 83,-1 86,-1 58,-14 -16,-8 -51,-14 -77,-15 -26,0 -50,-5 -53,-10 -12,-19 20,-21 91,-6 71,15 71,15 145,-14 41,-16 82,-29 91,-30 13,0 20,-15 29,-60 11,-59 12,-60 45,-60 19,0 34,4 34,8 0,5 -13,26 -30,48 -26,35 -38,64 -25,64 2,0 25,-22 51,-50 26,-27 55,-50 65,-50 24,0 49,10 49,21 0,6 -80,71 -119,95 -1,2 0,8 4,14 5,7 17,4 38,-10 50,-33 118,-66 168,-83 41,-14 58,-14 147,-2 55,8 114,20 132,27 28,12 16,13 -103,13 -99,0 -138,-4 -150,-14 -15,-12 -17,-11 -17,8 0,14 -8,22 -27,27 -51,10 -111,35 -124,50 -21,25 -2,28 48,6 76,-32 199,-55 259,-49 62,6 159,40 194,68 l 25,19 -44,-15 c -24,-8 -77,-15 -117,-15 -62,0 -77,-3 -91,-20 -20,-23 -33,-26 -33,-7 0,9 -24,18 -70,26 -83,15 -94,32 -16,24 30,-3 62,-3 71,0 14,6 14,9 -1,31 -15,24 -22,25 -112,28 -106,3 -112,8 -97,66 6,25 8,26 19,9 17,-22 52,-22 60,-1 8,20 -10,44 -32,44 -13,0 -12,3 3,20 18,19 17,20 -3,20 -11,0 -22,6 -25,13 -3,9 -8,9 -21,-2 -12,-10 -20,-11 -28,-3 -7,7 -17,2 -35,-19 -26,-30 -49,-39 -40,-15 12,31 -40,49 -62,22 -10,-11 -7,-17 10,-29 21,-15 21,-16 -17,-26 -22,-6 -45,-11 -52,-11 -27,0 -72,31 -87,61 -14,25 -21,30 -47,27 -45,-4 -45,-24 -2,-63 l 38,-35 -34,6 c -19,4 -43,11 -52,15 -9,5 -26,9 -37,9 -12,0 -21,6 -21,13 0,8 -11,24 -25,37 -14,13 -32,44 -40,70 l -14,45 z"
       id="path4394"
       inkscape:connector-curvature="0" />
    <path
       d="m 685,729 c 47,-58 110,-119 122,-119 7,0 13,9 13,20 0,11 -4,20 -9,20 -6,0 -41,23 -78,51 -37,29 -59,41 -48,28 z"
       id="path4396"
       inkscape:connector-curvature="0" />
    <path
       d="m 615,612 c 10,-11 158,-72 175,-72 14,0 12,20 -2,24 -15,5 -147,47 -168,54 -10,3 -12,2 -5,-6 z"
       id="path4398"
       inkscape:connector-curvature="0" />
    <path
       d="m 200,564 c 0,-5 14,-22 30,-37 37,-35 37,-53 4,-103 -29,-42 -34,-81 -13,-96 21,-14 161,-2 200,17 53,27 79,56 79,86 0,33 -28,55 -122,99 -62,28 -178,50 -178,34 z"
       id="path4400"
       inkscape:connector-curvature="0" />
    <path
       d="m 668,498 c 4,-4 37,-10 75,-14 58,-6 67,-5 67,10 0,14 -11,16 -74,14 -41,-2 -72,-6 -68,-10 z"
       id="path4402"
       inkscape:connector-curvature="0" />
    <path
       d="m 933,433 c -24,-25 -42,-51 -40,-57 5,-18 70,-46 107,-46 41,0 140,63 140,89 0,11 -22,23 -69,39 -37,12 -74,22 -81,22 -8,0 -33,-21 -57,-47 z"
       id="path4404"
       inkscape:connector-curvature="0" />
    <path
       d="m 1379,342 -23,-19 22,-7 c 34,-11 195,-11 212,-1 10,6 -10,13 -65,21 -44,6 -89,14 -101,18 -14,4 -29,0 -45,-12 z"
       id="path4406"
       inkscape:connector-curvature="0" />
    <path
       d="m 808,308 c -59,-41 -70,-65 -43,-88 17,-14 55,-3 145,39 89,43 88,41 39,67 -24,13 -53,23 -64,23 -11,0 -46,-18 -77,-41 z"
       id="path4408"
       inkscape:connector-curvature="0" />
    <path
       d="m 406,316 -39,-23 52,-42 c 58,-45 80,-50 104,-23 22,25 21,39 -3,47 -11,4 -27,20 -35,36 -19,35 -29,36 -79,5 z"
       id="path4410"
       inkscape:connector-curvature="0" />
    <path
       d="m 1260,300 c -13,-9 -13,-11 0,-20 19,-12 103,-30 138,-29 21,0 14,5 -26,19 -30,10 -59,23 -65,29 -13,13 -27,14 -47,1 z"
       id="path4412"
       inkscape:connector-curvature="0" />
    <path
       d="m 542,227 c -12,-13 -22,-26 -22,-30 0,-4 52,-7 115,-7 85,0 115,3 115,13 0,27 -17,36 -70,35 -30,-1 -69,2 -85,6 -25,5 -35,2 -53,-17 z"
       id="path4414"
       inkscape:connector-curvature="0" />
  </g>
</svg>
