<?xml version="1.0" standalone="no"?>
<svg xmlns="http://www.w3.org/2000/svg" viewBox="0 0 158.721 81" width="119px" height="61px"><path fill="#054405" fill-rule="nonzero" d="M16.76 33.80L14.40 26.48L4.64 26.48L2.32 33.80L0 33.80L7.92 9.28L12.80 9.28L20.72 33.80L16.76 33.80ZM5.28 24.52L13.76 24.52L9.52 11.20L5.28 24.52ZM31.40 8.80Q35.16 8.80 37.20 10.58Q39.24 12.36 39.72 16.04L39.72 16.04L36.40 16.48Q36.20 13.60 34.90 12.04Q33.60 10.48 31.40 10.48L31.40 10.48Q29.04 10.48 27.78 11.62Q26.52 12.76 26.52 14.84L26.52 14.84Q26.52 16.76 27.54 17.74Q28.56 18.72 31.20 19.40L31.20 19.40L33.40 19.96Q36.96 20.96 38.44 22.60Q39.92 24.24 39.92 27.16L39.92 27.16Q39.92 30.60 37.68 32.44Q35.44 34.28 31.28 34.28L31.28 34.28Q27.32 34.28 25.22 32.50Q23.12 30.72 22.68 27.04L22.68 27.04L25.92 26.56Q26.24 29.44 27.60 31.00Q28.96 32.56 31.28 32.56L31.28 32.56Q36.48 32.56 36.48 28.16L36.48 28.16Q36.48 26.84 36.04 26.04Q35.60 25.24 34.58 24.70Q33.56 24.16 31.60 23.68L31.60 23.68L29.56 23.16Q26 22.24 24.58 20.58Q23.16 18.92 23.16 15.88L23.16 15.88Q23.16 12.40 25.26 10.60Q27.36 8.80 31.40 8.80L31.40 8.80ZM48.92 31.76L59.12 31.76L59.12 33.80L44.84 33.80L44.84 9.28L58.40 9.28L58.40 11.32L48.92 11.32L48.92 20.24L57.56 20.24L57.56 22.36L48.92 22.36L48.92 31.76ZM70.68 8.80Q74.44 8.80 76.48 10.58Q78.52 12.36 79 16.04L79 16.04L75.68 16.48Q75.48 13.60 74.18 12.04Q72.88 10.48 70.68 10.48L70.68 10.48Q68.32 10.48 67.06 11.62Q65.80 12.76 65.80 14.84L65.80 14.84Q65.80 16.76 66.82 17.74Q67.84 18.72 70.48 19.40L70.48 19.40L72.68 19.96Q76.24 20.96 77.72 22.60Q79.20 24.24 79.20 27.16L79.20 27.16Q79.20 30.60 76.96 32.44Q74.72 34.28 70.56 34.28L70.56 34.28Q66.60 34.28 64.50 32.50Q62.40 30.72 61.96 27.04L61.96 27.04L65.20 26.56Q65.52 29.44 66.88 31.00Q68.24 32.56 70.56 32.56L70.56 32.56Q75.76 32.56 75.76 28.16L75.76 28.16Q75.76 26.84 75.32 26.04Q74.88 25.24 73.86 24.70Q72.84 24.16 70.88 23.68L70.88 23.68L68.84 23.16Q65.28 22.24 63.86 20.58Q62.44 18.92 62.44 15.88L62.44 15.88Q62.44 12.40 64.54 10.60Q66.64 8.80 70.68 8.80L70.68 8.80ZM92.76 34.28Q87.72 34.28 85.30 31.18Q82.88 28.08 82.88 21.56L82.88 21.56Q82.88 14.96 85.28 11.88Q87.68 8.80 92.76 8.80L92.76 8.80Q97.88 8.80 100.28 11.90Q102.68 15.00 102.68 21.56L102.68 21.56Q102.68 28.08 100.26 31.18Q97.84 34.28 92.76 34.28L92.76 34.28ZM92.76 32.56Q95.72 32.56 97.16 29.86Q98.60 27.16 98.60 21.56L98.60 21.56Q98.60 15.88 97.16 13.18Q95.72 10.48 92.76 10.48L92.76 10.48Q89.80 10.48 88.38 13.16Q86.96 15.84 86.96 21.56L86.96 21.56Q86.96 27.24 88.38 29.90Q89.80 32.56 92.76 32.56L92.76 32.56ZM121.52 24.92L125.20 33.80L120.80 33.80L117.36 25.28Q116.88 24.12 116.18 23.74Q115.48 23.36 114.04 23.36L114.04 23.36L112.16 23.36L112.16 33.80L108.08 33.80L108.08 9.28L116.28 9.28Q120.64 9.28 122.40 11.42Q124.16 13.56 124.16 16.60L124.16 16.60Q124.16 18.84 123.10 20.58Q122.04 22.32 119.44 23.00L119.44 23.00Q120.88 23.52 121.52 24.92L121.52 24.92ZM112.16 21.88L115.84 21.88Q118.00 21.88 119.04 20.34Q120.08 18.80 120.08 16.60L120.08 16.60Q120.08 14.16 119.04 12.48Q118.00 10.80 115.84 10.80L115.84 10.80L112.16 10.80L112.16 21.88ZM134.20 9.28L134.20 33.80L130.12 33.80L130.12 9.28L134.20 9.28ZM129.68 6.32L134.60 0L137.08 2.88L130.52 7.24L129.68 6.32ZM154.76 33.80L152.40 26.48L142.64 26.48L140.32 33.80L138.00 33.80L145.92 9.28L150.80 9.28L158.72 33.80L154.76 33.80ZM143.28 24.52L151.76 24.52L147.52 11.20L143.28 24.52Z" transform="translate(0 0) scale(1)"></path><path fill="#054405" fill-rule="nonzero" d="M8.08 0.48Q12.32 0.48 14.08 2.66Q15.84 4.84 15.84 8.32L15.84 8.32Q15.84 11.80 14.08 13.96Q12.32 16.12 8.08 16.12L8.08 16.12L4.08 16.12L4.08 25L0 25L0 0.48L8.08 0.48ZM7.52 14.68Q9.72 14.68 10.74 13Q11.76 11.32 11.76 8.32L11.76 8.32Q11.76 5.36 10.74 3.68Q9.72 2 7.52 2L7.52 2L4.08 2L4.08 14.68L7.52 14.68ZM24.08 22.96L34.28 22.96L34.28 25L20 25L20 0.48L33.56 0.48L33.56 2.52L24.08 2.52L24.08 11.44L32.72 11.44L32.72 13.56L24.08 13.56L24.08 22.96ZM54.64 0.48L47.08 16.52L47.04 16.56L47.04 25L42.96 25L42.96 16.52L35.40 0.48L39.52 0.48L45.80 14.28L52.24 0.48L54.64 0.48ZM77.92 25L77.40 2.92L70.72 24.92L70.72 25L67.08 25L60.40 2.72L59.84 25L57.44 25L58.12 0.48L63.44 0.48L69.52 20.96L75.72 0.48L81.24 0.48L81.96 25L77.92 25ZM96.72 25.48Q91.68 25.48 89.26 22.38Q86.84 19.28 86.84 12.76L86.84 12.76Q86.84 6.16 89.24 3.08Q91.64 0 96.72 0L96.72 0Q101.84 0 104.24 3.10Q106.64 6.20 106.64 12.76L106.64 12.76Q106.64 19.28 104.22 22.38Q101.80 25.48 96.72 25.48L96.72 25.48ZM96.72 23.76Q99.68 23.76 101.12 21.06Q102.56 18.36 102.56 12.76L102.56 12.76Q102.56 7.08 101.12 4.38Q99.68 1.68 96.72 1.68L96.72 1.68Q93.76 1.68 92.34 4.36Q90.92 7.04 90.92 12.76L90.92 12.76Q90.92 18.44 92.34 21.10Q93.76 23.76 96.72 23.76L96.72 23.76Z" transform="translate(0 42.28) scale(1.489)"></path></svg>
