<?xml version="1.0" standalone="no"?>
<!DOCTYPE svg PUBLIC "-//W3C//DTD SVG 20010904//EN"
 "http://www.w3.org/TR/2001/REC-SVG-20010904/DTD/svg10.dtd">
<svg version="1.0" xmlns="http://www.w3.org/2000/svg"
 width="155px" height="93px" viewBox="0 0 206.000000 124.000000"
 preserveAspectRatio="xMidYMid meet">
<metadata>
Created by potrace 1.10, written by Peter Selinger 2001-2011
</metadata>
<g transform="translate(0.000000,124.000000) scale(0.100000,-0.100000)"
fill="#054405" stroke="none">
<path d="M1165 1010 c-62 -13 -153 -49 -158 -64 -4 -9 10 -25 35 -42 52 -36
143 -44 236 -19 39 10 82 14 110 10 36 -4 42 -3 25 5 -13 5 -23 15 -23 21 0 9
22 10 80 6 44 -3 80 -3 80 -1 0 11 -96 56 -160 73 -76 21 -154 25 -225 11z"/>
<path d="M951 860 c-12 -33 -19 -65 -16 -70 3 -6 21 -10 39 -10 30 0 35 4 50
43 9 23 16 48 16 54 0 11 -43 43 -58 43 -5 0 -19 -27 -31 -60z"/>
<path d="M1638 867 c23 -24 29 -57 12 -57 -6 0 -24 7 -40 15 -41 21 -38 2 5
-32 23 -19 35 -36 35 -53 0 -37 27 -69 74 -91 l41 -19 -35 0 c-19 -1 -62 -11
-95 -23 -49 -18 -59 -26 -57 -42 2 -11 9 -25 15 -32 30 -29 228 42 269 97 10
14 21 46 24 72 6 46 5 49 -32 86 -40 39 -172 102 -215 102 l-22 0 21 -23z"/>
<path d="M801 820 c-1 -48 30 -113 66 -138 16 -11 49 -28 74 -38 73 -28 70
-36 -13 -33 -90 4 -108 -5 -46 -21 88 -25 88 -27 -1 -32 -32 -2 -56 -8 -59
-15 -3 -10 19 -13 85 -14 83 -1 86 -1 58 -14 -16 -8 -51 -14 -77 -15 -26 0
-50 -5 -53 -10 -12 -19 20 -21 91 -6 71 15 71 15 145 -14 41 -16 82 -29 91
-30 13 0 20 -15 29 -60 11 -59 12 -60 45 -60 19 0 34 4 34 8 0 5 -13 26 -30
48 -26 35 -38 64 -25 64 2 0 25 -22 51 -50 26 -27 55 -50 65 -50 24 0 49 10
49 21 0 6 -80 71 -119 95 -1 2 0 8 4 14 5 7 17 4 38 -10 50 -33 118 -66 168
-83 41 -14 58 -14 147 -2 55 8 114 20 132 27 28 12 16 13 -103 13 -99 0 -138
-4 -150 -14 -15 -12 -17 -11 -17 8 0 14 -8 22 -27 27 -51 10 -111 35 -124 50
-21 25 -2 28 48 6 76 -32 199 -55 259 -49 62 6 159 40 194 68 l25 19 -44 -15
c-24 -8 -77 -15 -117 -15 -62 0 -77 -3 -91 -20 -20 -23 -33 -26 -33 -7 0 9
-24 18 -70 26 -83 15 -94 32 -16 24 30 -3 62 -3 71 0 14 6 14 9 -1 31 -15 24
-22 25 -112 28 -106 3 -112 8 -97 66 6 25 8 26 19 9 17 -22 52 -22 60 -1 8 20
-10 44 -32 44 -13 0 -12 3 3 20 18 19 17 20 -3 20 -11 0 -22 6 -25 13 -3 9 -8
9 -21 -2 -12 -10 -20 -11 -28 -3 -7 7 -17 2 -35 -19 -26 -30 -49 -39 -40 -15
12 31 -40 49 -62 22 -10 -11 -7 -17 10 -29 21 -15 21 -16 -17 -26 -22 -6 -45
-11 -52 -11 -27 0 -72 31 -87 61 -14 25 -21 30 -47 27 -45 -4 -45 -24 -2 -63
l38 -35 -34 6 c-19 4 -43 11 -52 15 -9 5 -26 9 -37 9 -12 0 -21 6 -21 13 0 8
-11 24 -25 37 -14 13 -32 44 -40 70 l-14 45 0 -35z"/>
<path d="M685 729 c47 -58 110 -119 122 -119 7 0 13 9 13 20 0 11 -4 20 -9 20
-6 0 -41 23 -78 51 -37 29 -59 41 -48 28z"/>
<path d="M615 612 c10 -11 158 -72 175 -72 14 0 12 20 -2 24 -15 5 -147 47
-168 54 -10 3 -12 2 -5 -6z"/>
<path d="M200 564 c0 -5 14 -22 30 -37 37 -35 37 -53 4 -103 -29 -42 -34 -81
-13 -96 21 -14 161 -2 200 17 53 27 79 56 79 86 0 33 -28 55 -122 99 -62 28
-178 50 -178 34z"/>
<path d="M668 498 c4 -4 37 -10 75 -14 58 -6 67 -5 67 10 0 14 -11 16 -74 14
-41 -2 -72 -6 -68 -10z"/>
<path d="M933 433 c-24 -25 -42 -51 -40 -57 5 -18 70 -46 107 -46 41 0 140 63
140 89 0 11 -22 23 -69 39 -37 12 -74 22 -81 22 -8 0 -33 -21 -57 -47z"/>
<path d="M1379 342 l-23 -19 22 -7 c34 -11 195 -11 212 -1 10 6 -10 13 -65 21
-44 6 -89 14 -101 18 -14 4 -29 0 -45 -12z"/>
<path d="M808 308 c-59 -41 -70 -65 -43 -88 17 -14 55 -3 145 39 89 43 88 41
39 67 -24 13 -53 23 -64 23 -11 0 -46 -18 -77 -41z"/>
<path d="M406 316 l-39 -23 52 -42 c58 -45 80 -50 104 -23 22 25 21 39 -3 47
-11 4 -27 20 -35 36 -19 35 -29 36 -79 5z"/>
<path d="M1260 300 c-13 -9 -13 -11 0 -20 19 -12 103 -30 138 -29 21 0 14 5
-26 19 -30 10 -59 23 -65 29 -13 13 -27 14 -47 1z"/>
<path d="M542 227 c-12 -13 -22 -26 -22 -30 0 -4 52 -7 115 -7 85 0 115 3 115
13 0 27 -17 36 -70 35 -30 -1 -69 2 -85 6 -25 5 -35 2 -53 -17z"/>
</g>
</svg>
